<svg width="128" height="128" viewBox="0 0 128 128" fill="none" xmlns="http://www.w3.org/2000/svg">
<path fill-rule="evenodd" clip-rule="evenodd" d="M26.0263 83.5899C27.4232 82.8915 25.3279 80.0977 23.931 80.7961C22.5341 82.193 24.6294 84.9868 26.0263 83.5899Z" fill="#007C82"/>
<path fill-rule="evenodd" clip-rule="evenodd" d="M26.0263 83.5899C27.4232 82.8915 25.3279 80.0977 23.931 80.7961C22.5341 82.193 24.6294 84.9868 26.0263 83.5899Z" fill="#007C82"/>
<path fill-rule="evenodd" clip-rule="evenodd" d="M80.5054 40.9845C81.9023 40.9845 82.6008 39.5876 82.6008 37.4922C82.6008 35.3969 80.5054 34 78.4101 34C76.3147 34 74.9178 35.3969 74.9178 37.4922C74.9178 39.5876 75.6163 40.9845 77.0132 40.9845C63.0442 41.683 51.1705 47.969 42.0907 57.0488C35.1062 51.4612 19.7403 52.8581 19.0418 52.1597C16.248 50.7628 14.1527 47.969 12.0573 48.6674C10.6604 49.3659 9.96198 48.6674 9.26353 48.6674C7.16818 47.2705 6.46973 40.2861 2.27903 44.4768C2.97748 46.5721 2.27903 47.969 0.183679 47.969C-1.21322 54.255 5.77128 50.7628 7.16818 51.4612C7.86663 51.4612 8.56508 52.1597 8.56508 53.5566C9.26353 55.6519 12.7558 56.3504 15.5496 57.7473C23.2325 61.938 21.1372 68.9225 29.5186 73.1132C30.217 73.8116 30.9155 74.5101 32.3124 74.5101C31.6139 75.2085 31.6139 76.6054 31.6139 77.3039C29.5186 75.2085 26.0263 73.1132 22.5341 71.0178C17.6449 68.9225 14.1527 68.224 12.0573 68.9225C0.183678 79.3992 13.4542 94.7651 29.5186 92.6698C16.248 96.162 -1.21322 84.9868 8.56508 71.0178C-4.70547 84.2884 16.9465 98.2574 29.5186 94.0667V94.7651H113.333C115.428 75.2085 107.745 56.3504 90.9822 46.5721C108.443 53.5566 121.016 71.0178 121.016 91.2729V94.7651H127.302C128 92.6698 128 90.5744 128 88.4791L126.603 78.7008C125.206 74.5101 123.809 70.3194 121.714 66.1287L119.619 62.6364C110.539 50.0643 96.5697 41.683 80.5054 40.9845ZM39.9953 60.5411C39.9953 59.8426 40.6938 59.1442 41.3922 58.4457C37.2015 55.6519 30.9155 54.255 25.3279 54.9535C30.217 54.9535 35.8046 57.0488 39.9953 60.5411ZM29.5186 85.6853V84.9868C28.8201 84.9868 28.1217 84.2884 28.1217 84.2884C26.7248 82.193 27.4232 80.0977 23.931 80.0977C23.2325 79.3992 23.2325 78.0023 21.1372 76.6054C26.0263 85.6853 19.7403 82.8915 14.1527 83.5899C16.9465 84.2884 19.0418 84.9868 22.5341 84.2884C23.931 83.5899 24.6294 84.9868 26.0263 84.9868C28.1217 84.2884 28.8201 84.9868 29.5186 85.6853Z" fill="#007C82"/>
</svg>
