<svg width="100" height="81" viewBox="0 0 100 81" fill="none" xmlns="http://www.w3.org/2000/svg">
<path d="M47.9535 17.8895C48.7856 17.8895 49.2017 17.0575 49.2017 15.8094C49.2017 14.5613 47.9535 13.7292 46.7054 13.7292C45.4573 13.7292 44.6253 14.5613 44.6253 15.8094C44.6253 17.0575 45.0413 17.8895 45.8734 17.8895C37.5526 18.3056 30.48 22.0499 25.0716 27.4584C20.9112 24.1301 11.7584 24.9622 11.3424 24.5461C9.67824 23.714 8.43013 22.0499 7.18202 22.4659C6.34995 22.882 5.93391 22.4659 5.51788 22.4659C4.26977 21.6339 3.85373 17.4735 1.35752 19.9697C1.77355 21.2178 1.35752 22.0499 0.109409 22.0499C-0.722663 25.7942 3.4377 23.714 4.26977 24.1301C4.6858 24.1301 5.10184 24.5461 5.10184 25.3782C5.51788 26.6263 7.59806 27.0423 9.2622 27.8744C13.8386 30.3706 12.5905 34.531 17.5829 37.0272C17.999 37.4432 18.415 37.8593 19.2471 37.8593C18.831 38.2753 18.831 39.1074 18.831 39.5234C17.5829 38.2753 15.5027 37.0272 13.4226 35.7791C10.5103 34.531 8.43013 34.1149 7.18202 34.531C0.109409 40.7715 8.01409 49.9243 17.5829 48.6762C9.67824 50.7564 -0.722663 44.0998 5.10184 35.7791C-2.80284 43.6838 10.0943 52.0045 17.5829 49.5083V49.9243H67.5072C68.7553 38.2753 64.1789 27.0423 54.1941 21.2178C64.595 25.3782 72.0836 35.7791 72.0836 47.8441C72.0836 48.6762 72.0836 49.5083 72.0836 49.9243H75.828C76.244 48.6762 76.244 47.4281 76.244 46.18C82.4845 32.4508 92.0534 17.4735 99.958 4.16036C101.206 -7.48865 74.1638 28.2904 78.3242 34.947L75.4119 40.3555C74.5798 37.8593 73.7478 35.3631 72.4997 32.8668C72.9157 30.7867 73.7478 28.2904 74.5798 26.2103C77.4921 25.7942 79.5723 24.5461 80.8204 21.2178C83.3166 14.9773 84.5647 8.73675 86.2289 2.49622C83.7326 7.48865 81.6525 12.8971 79.9883 18.3056C79.5723 19.5537 78.7402 18.7216 78.7402 17.8895C80.8204 12.4811 82.0685 7.07261 83.7326 1.66414C81.2364 7.07261 79.1562 11.649 77.4921 17.4735C77.0761 18.3056 76.244 18.3056 76.66 17.0575C78.3242 11.649 79.9883 6.65658 81.6525 0.832072C79.1562 6.24054 76.66 11.233 74.9959 16.6414C74.5798 17.0575 73.7478 17.4735 74.1638 16.2254C75.828 10.8169 77.9081 5.40847 79.1562 0C76.244 5.8245 73.3317 11.649 71.2516 17.8895C70.0035 21.2178 71.2516 23.298 72.9157 25.7942C72.4997 27.4584 71.6676 29.1225 71.2516 30.7867C65.8431 23.298 57.5224 18.3056 47.9535 17.8895ZM24.6555 28.2904C24.2395 28.7065 23.8235 29.1225 23.8235 29.5386C21.3272 27.4584 17.999 26.2103 15.0867 26.2103C18.415 25.7942 22.1593 26.6263 24.6555 28.2904ZM17.5829 44.0998V44.5158C17.1669 44.0998 16.7508 43.6838 15.5027 44.0998C14.6707 44.0998 14.2546 43.2677 13.4226 43.6838C11.3424 44.0998 10.0943 43.6838 8.43013 43.2677C11.7584 42.8517 15.5027 44.5158 12.5905 39.1074C13.8386 39.9395 13.8386 40.7715 14.2546 41.1876C16.3348 41.1876 15.9188 42.4357 16.7508 43.6838C16.7508 43.6838 17.1669 44.0998 17.5829 44.0998ZM15.5027 43.2677C16.3348 42.8517 15.0867 41.1876 14.2546 41.6036C13.4226 42.4357 14.6707 44.0998 15.5027 43.2677Z" fill="#007C82"/>
<path d="M30.064 54.0847C30.8961 55.3328 32.1442 56.5809 32.5602 57.829C32.9763 59.4931 29.2319 63.6535 30.064 65.7337C30.8961 70.3101 29.2319 70.3101 27.1518 73.2223C29.2319 74.0544 31.7282 75.7185 33.8083 76.5506C40.0489 66.5657 51.6979 60.7412 60.4346 56.9969C60.0186 55.7488 59.1865 55.3328 57.5224 55.7488C52.946 57.413 48.3696 59.0771 43.7932 61.1573C37.9687 63.6535 35.8885 62.4054 35.8885 59.0771C35.8885 56.5809 34.6404 54.9167 33.3923 54.0847H43.3772C42.5451 55.7488 40.8809 59.9092 39.6328 61.9894C42.1291 61.5733 45.8734 59.4931 48.7856 58.6611C50.4498 54.9167 51.6979 54.9167 51.2818 54.0847H55.0262C53.362 54.5007 50.4498 57.413 49.2017 58.245C51.2818 57.413 53.362 56.5809 55.4422 55.7488C56.6903 54.9167 57.1063 54.0847 56.6903 54.0847H79.9883C81.2364 54.0847 81.2364 51.5885 79.9883 51.5885H13.8386C12.5905 51.5885 12.5905 54.0847 13.8386 54.0847H30.064ZM49.2017 54.0847H45.4573C45.4573 55.3328 44.2092 58.6611 43.3772 59.9092C43.3772 60.3252 43.7932 59.9092 44.6253 59.4931C45.8734 57.829 47.5375 54.9167 49.2017 54.0847Z" fill="#007C82"/>
<path d="M34.2243 77.7987L25.4876 73.6384L18.415 80.711H31.3121L34.2243 77.7987ZM25.9036 74.8865C26.3197 74.8865 27.1517 75.3025 27.1517 75.7185C27.1517 76.1346 26.7357 76.5506 26.3197 76.5506C25.4876 76.5506 25.0716 76.1346 25.0716 75.7185C25.0716 75.3025 25.4876 74.8865 25.9036 74.8865Z" fill="#007C82"/>
</svg>
