<svg xmlns="http://www.w3.org/2000/svg">
  <symbol id="menu" viewBox="0 0 48 48">
    <path d="M6 36v-3h36v3Zm0-10.5v-3h36v3ZM6 15v-3h36v3Z"/>
  </symbol>
  <symbol id="menu_book" viewBox="0 0 48 48">
    <path d="M28 19.3v-2.4q1.65-.7 3.375-1.05Q33.1 15.5 35 15.5q1.3 0 2.55.2 1.25.2 2.45.5v2.2q-1.2-.45-2.425-.675Q36.35 17.5 35 17.5q-1.9 0-3.65.475T28 19.3Zm0 11v-2.45q1.65-.7 3.375-1.025Q33.1 26.5 35 26.5q1.3 0 2.55.2 1.25.2 2.45.5v2.2q-1.2-.45-2.425-.675Q36.35 28.5 35 28.5q-1.9 0-3.65.45T28 30.3Zm0-5.5v-2.4q1.65-.7 3.375-1.05Q33.1 21 35 21q1.3 0 2.55.2 1.25.2 2.45.5v2.2q-1.2-.45-2.425-.675Q36.35 23 35 23q-1.9 0-3.65.475T28 24.8ZM12.4 33q2.7 0 5.225.625 2.525.625 4.975 1.875V14.15q-2.25-1.5-4.875-2.325Q15.1 11 12.4 11q-1.9 0-3.725.475Q6.85 11.95 5 12.65v21.7q1.55-.7 3.525-1.025Q10.5 33 12.4 33Zm13.2 2.5q2.5-1.25 4.9-1.875Q32.9 33 35.6 33q1.9 0 3.925.3t3.475.8V12.65q-1.7-.85-3.6-1.25-1.9-.4-3.8-.4-2.7 0-5.225.825-2.525.825-4.775 2.325ZM24.1 40q-2.55-1.9-5.55-2.925T12.4 36.05q-1.85 0-3.6.45t-3.5 1.1q-1.15.55-2.225-.15Q2 36.75 2 35.45V12.3q0-.75.35-1.375T3.4 9.95q2.1-1 4.375-1.475Q10.05 8 12.4 8q3.15 0 6.125.85t5.575 2.6q2.55-1.75 5.475-2.6Q32.5 8 35.6 8q2.35 0 4.6.475 2.25.475 4.35 1.475.7.35 1.075.975T46 12.3v23.15q0 1.4-1.125 2.125-1.125.725-2.225.025-1.7-.7-3.45-1.125-1.75-.425-3.6-.425-3.15 0-6.05 1.05T24.1 40ZM13.8 23.55Z"/>
  </symbol>
  <symbol id="assignment_add" viewBox="0 0 48 48">
    <path d="M9 42q-1.25 0-2.125-.875T6 39V9q0-1.25.875-2.125T9 6h10.25q.25-1.75 1.6-2.875T24 2q1.8 0 3.15 1.125Q28.5 4.25 28.75 6H39q1.25 0 2.125.875T42 9v16.45q-.7-.4-1.475-.65-.775-.25-1.525-.4V9H9v30h15.45q.2.8.45 1.55t.6 1.45Zm0-5.35V39 9v15.4-.2 12.45ZM14 34h10.55q.2-.8.45-1.55t.65-1.45H14Zm0-8.5h17.2q.7-.35 1.35-.575.65-.225 1.45-.425v-2H14Zm0-8.5h20v-3H14Zm10-8.85q.7 0 1.225-.525.525-.525.525-1.225 0-.7-.525-1.225Q24.7 4.65 24 4.65q-.7 0-1.225.525-.525.525-.525 1.225 0 .7.525 1.225.525.525 1.225.525Zm12.65 37.8q-3.9 0-6.65-2.775-2.75-2.775-2.75-6.575 0-3.9 2.75-6.675t6.65-2.775q3.85 0 6.625 2.775T46.05 36.6q0 3.8-2.775 6.575Q40.5 45.95 36.65 45.95Zm-.75-3h1.65v-5.5h5.5V35.8h-5.5v-5.5H35.9v5.5h-5.5v1.65h5.5Z"/>
  </symbol>
  <symbol id="engineering" viewBox="0 0 48 48">
    <path d="M2.1 42v-4.6q0-1.7.8-2.825.8-1.125 2.25-1.825 2.7-1.3 5.775-2.15 3.075-.85 6.975-.85 3.9 0 6.975.85 3.075.85 5.775 2.15 1.45.7 2.25 1.825t.8 2.825V42Zm3-3h25.6v-1.6q0-.75-.425-1.225-.425-.475-1.025-.725-2.15-.95-4.8-1.825t-6.55-.875q-3.9 0-6.55.875t-4.8 1.825q-.6.25-1.025.725Q5.1 36.65 5.1 37.4Zm12.8-12.25q-3.3 0-5.4-2.15-2.1-2.15-2.1-5.35h-.5q-.4 0-.7-.3-.3-.3-.3-.7 0-.4.3-.7.3-.3.7-.3h.5q0-2 1-3.6t2.6-2.6V13q0 .3.225.525.225.225.525.225.35 0 .55-.225.2-.225.2-.525v-2.6q.4-.1 1.1-.175.7-.075 1.35-.075.65 0 1.35.075.7.075 1.1.175V13q0 .3.2.525.2.225.55.225.3 0 .525-.225.225-.225.225-.525v-1.95q1.6 1 2.55 2.6.95 1.6.95 3.6h.5q.4 0 .7.3.3.3.3.7 0 .4-.3.7-.3.3-.7.3h-.5q0 3.2-2.1 5.35-2.1 2.15-5.4 2.15Zm0-3q2.1 0 3.3-1.25 1.2-1.25 1.2-3.25h-9q0 2 1.2 3.25t3.3 1.25Zm15.1 6.2-.1-1.45q-.35-.2-.725-.45t-.675-.5l-1.3.7-1.1-1.6 1.3-.95q-.1-.2-.1-.375v-.75q0-.175.1-.375l-1.3-.95 1.1-1.6 1.3.7.7-.5q.35-.25.7-.45l.1-1.45h2l.1 1.45q.35.2.7.45l.7.5 1.3-.7 1.1 1.6-1.3.95q.1.2.1.375v.75q0 .175-.1.375l1.3.95-1.1 1.6-1.3-.7q-.3.25-.675.5-.375.25-.725.45l-.1 1.45Zm1-3.1q.8 0 1.35-.55t.55-1.35q0-.8-.55-1.35T34 23.05q-.8 0-1.35.55t-.55 1.35q0 .8.55 1.35t1.35.55Zm4.4-7.75-.45-1.75q-.5-.2-1.025-.55-.525-.35-.875-.75l-2.2.8-1-1.75 1.75-1.4q-.1-.25-.175-.55-.075-.3-.075-.6t.075-.6q.075-.3.175-.55L32.85 10l1-1.75 2.2.8q.35-.4.875-.775t1.025-.525L38.4 6h1.9l.45 1.75q.5.15 1.025.525.525.375.875.775l2.2-.8 1 1.75-1.75 1.4q.1.25.175.55.075.3.075.6t-.075.6q-.075.3-.175.55l1.75 1.4-1 1.75-2.2-.8q-.35.4-.875.75t-1.025.55l-.45 1.75Zm.95-3.65q1.25 0 2.075-.825.825-.825.825-2.075 0-1.25-.825-2.075-.825-.825-2.075-.825-1.25 0-2.075.825-.825.825-.825 2.075 0 1.25.825 2.075.825.825 2.075.825ZM5.1 39h25.6H5.1Z"/>
  </symbol>
  <symbol id="close" viewBox="0 0 48 48">
    <path d="m12.45 37.65-2.1-2.1L21.9 24 10.35 12.45l2.1-2.1L24 21.9l11.55-11.55 2.1 2.1L26.1 24l11.55 11.55-2.1 2.1L24 26.1Z"/>
  </symbol>
  <symbol id="delete_forever" viewBox="0 0 48 48">
    <path d="M18.05 33.05 24 27l6 6.05 2.35-2.4-5.95-6.05 5.95-6.05-2.35-2.4-6 6.05-5.95-6.05-2.4 2.4 6 6.05-6 6.05Zm-5 8.95q-1.2 0-2.1-.9-.9-.9-.9-2.1V10.5H8v-3h9.4V6h13.2v1.5H40v3h-2.05V39q0 1.2-.9 2.1-.9.9-2.1.9Zm21.9-31.5h-21.9V39h21.9Zm-21.9 0V39Z"/>
  </symbol>
  <symbol id="delete_forever_fill" viewBox="0 0 48 48">
    <path d="M18.05 33.05 24 27l6 6.05 2.35-2.4-5.95-6.05 5.95-6.05-2.35-2.4-6 6.05-5.95-6.05-2.4 2.4 6 6.05-6 6.05Zm-5 8.95q-1.2 0-2.1-.9-.9-.9-.9-2.1V10.5H8v-3h9.4V6h13.2v1.5H40v3h-2.05V39q0 1.2-.9 2.1-.9.9-2.1.9Z"/>
  </symbol>
  <symbol id="add_a_photo" viewBox="0 0 48 48">
    <path d="M38.65 15.3V11h-4.3V8h4.3V3.65h3V8H46v3h-4.35v4.3ZM4.7 44q-1.2 0-2.1-.9-.9-.9-.9-2.1V15.35q0-1.15.9-2.075.9-.925 2.1-.925h7.35L15.7 8h14v3H17.1l-3.65 4.35H4.7V41h34V20h3v21q0 1.2-.925 2.1-.925.9-2.075.9Zm17-7.3q3.6 0 6.05-2.45 2.45-2.45 2.45-6.1 0-3.6-2.45-6.025Q25.3 19.7 21.7 19.7q-3.65 0-6.075 2.425Q13.2 24.55 13.2 28.15q0 3.65 2.425 6.1Q18.05 36.7 21.7 36.7Zm0-3q-2.4 0-3.95-1.575-1.55-1.575-1.55-3.975 0-2.35 1.55-3.9 1.55-1.55 3.95-1.55 2.35 0 3.925 1.55 1.575 1.55 1.575 3.9 0 2.4-1.575 3.975Q24.05 33.7 21.7 33.7Zm0-5.5Z"/>
  </symbol>
  <symbol id="play_arrow" viewBox="0 0 48 48">
    <path d="M16 37.85v-28l22 14Zm3-14Zm0 8.55 13.45-8.55L19 15.3Z"/>
  </symbol>
  <symbol id="stop_circle" viewBox="0 0 48 48">
    <path d="M16.5 31.5h15v-15h-15ZM24 44q-4.1 0-7.75-1.575-3.65-1.575-6.375-4.3-2.725-2.725-4.3-6.375Q4 28.1 4 23.95q0-4.1 1.575-7.75 1.575-3.65 4.3-6.35 2.725-2.7 6.375-4.275Q19.9 4 24.05 4q4.1 0 7.75 1.575 3.65 1.575 6.35 4.275 2.7 2.7 4.275 6.35Q44 19.85 44 24q0 4.1-1.575 7.75-1.575 3.65-4.275 6.375t-6.35 4.3Q28.15 44 24 44Zm.05-3q7.05 0 12-4.975T41 23.95q0-7.05-4.95-12T24 7q-7.05 0-12.025 4.95Q7 16.9 7 24q0 7.05 4.975 12.025Q16.95 41 24.05 41ZM24 24Z"/>
  </symbol>
  <symbol id="play_pause" viewBox="0 0 48 48">
    <path d="M10 31.4V16.6L21 24Zm17 .6V16h3v16Zm8 0V16h3v16Z"/>
  </symbol>
  <symbol id="grade" viewBox="0 0 48 48">
    <path d="m16.15 37.75 7.85-4.7 7.85 4.75-2.1-8.9 6.9-6-9.1-.8L24 13.7l-3.55 8.35-9.1.8 6.9 6ZM11.65 44l3.25-14.05L4 20.5l14.4-1.25L24 6l5.6 13.25L44 20.5l-10.9 9.45L36.35 44 24 36.55ZM24 26.25Z"/>
  </symbol>
  <symbol id="grade-fill" viewBox="0 0 48 48">
    <path d="m11.65 44 3.25-14.05L4 20.5l14.4-1.25L24 6l5.6 13.25L44 20.5l-10.9 9.45L36.35 44 24 36.55Z"/>
  </symbol>
  <symbol id="production_quantity_limits" viewBox="0 0 48 48">
    <path d="M14.5 44q-1.5 0-2.55-1.05-1.05-1.05-1.05-2.55 0-1.5 1.05-2.55Q13 36.8 14.5 36.8q1.5 0 2.55 1.05 1.05 1.05 1.05 2.55 0 1.5-1.05 2.55Q16 44 14.5 44Zm20.2 0q-1.5 0-2.55-1.05-1.05-1.05-1.05-2.55 0-1.5 1.05-2.55 1.05-1.05 2.55-1.05 1.5 0 2.55 1.05 1.05 1.05 1.05 2.55 0 1.5-1.05 2.55Q36.2 44 34.7 44ZM24 18.8q-.7 0-1.2-.5t-.5-1.2q0-.7.5-1.2t1.2-.5q.7 0 1.2.5t.5 1.2q0 .7-.5 1.2t-1.2.5ZM22.5 12V2h3v10Zm-8 21.65q-2.1 0-3.075-1.7-.975-1.7.025-3.45l3.05-5.55L7 7H3.1V4h5.8l8.5 18.2H32l7.8-14 2.6 1.4-7.65 13.85q-.45.85-1.225 1.3-.775.45-1.825.45h-15l-3.1 5.45h24.7v3Z"/>
  </symbol>
  <symbol id="mood_bad" viewBox="0 0 48 48">
    <path d="M31.3 21.35q1.15 0 1.925-.8.775-.8.775-1.9 0-1.15-.775-1.925-.775-.775-1.925-.775-1.1 0-1.9.775-.8.775-.8 1.925 0 1.1.8 1.9.8.8 1.9.8Zm-14.6 0q1.15 0 1.925-.8.775-.8.775-1.9 0-1.15-.775-1.925-.775-.775-1.925-.775-1.1 0-1.9.775-.8.775-.8 1.925 0 1.1.8 1.9.8.8 1.9.8Zm7.3 5.8q-3.35 0-6.075 1.875T13.9 34h20.2q-1.25-3.15-4-5T24 27.15ZM24 44q-4.15 0-7.8-1.575-3.65-1.575-6.35-4.275-2.7-2.7-4.275-6.35Q4 28.15 4 24t1.575-7.8Q7.15 12.55 9.85 9.85q2.7-2.7 6.35-4.275Q19.85 4 24 4t7.8 1.575q3.65 1.575 6.35 4.275 2.7 2.7 4.275 6.35Q44 19.85 44 24t-1.575 7.8q-1.575 3.65-4.275 6.35-2.7 2.7-6.35 4.275Q28.15 44 24 44Zm0-20Zm0 17q7.1 0 12.05-4.95Q41 31.1 41 24q0-7.1-4.95-12.05Q31.1 7 24 7q-7.1 0-12.05 4.95Q7 16.9 7 24q0 7.1 4.95 12.05Q16.9 41 24 41Z"/>
  </symbol>
  <symbol id="thermostat_auto" viewBox="0 0 48 48">
    <path d="M14.8 41.95q-3.75 0-6.425-2.675T5.7 32.85q0-2.4 1.2-4.525Q8.1 26.2 10.2 24.9V10.6q0-1.9 1.35-3.25T14.8 6q1.9 0 3.25 1.35t1.35 3.25v14.3q2.1 1.3 3.3 3.425 1.2 2.125 1.2 4.525 0 3.75-2.675 6.425T14.8 41.95Zm-6.1-9.1h12.2q0-1.75-.95-3.45Q19 27.7 17.4 27l-1-.45V10.6q0-.7-.45-1.15Q15.5 9 14.8 9t-1.15.45q-.45.45-.45 1.15v15.95l-1 .45q-1.75.8-2.625 2.45-.875 1.65-.875 3.4Zm17.65-6.55 7.5-19.25h2.65L44 26.3h-2.8l-2.15-5.6H31.3l-2.15 5.6Zm5.75-7.95h6.15l-2.7-7.4h-.75Z"/>
  </symbol>
  <symbol id="check" viewBox="0 0 48 48">
    <path d="M21.05 33.1 35.2 18.95l-2.3-2.25-11.85 11.85-6-6-2.25 2.25ZM24 44q-4.1 0-7.75-1.575-3.65-1.575-6.375-4.3-2.725-2.725-4.3-6.375Q4 28.1 4 24q0-4.15 1.575-7.8 1.575-3.65 4.3-6.35 2.725-2.7 6.375-4.275Q19.9 4 24 4q4.15 0 7.8 1.575 3.65 1.575 6.35 4.275 2.7 2.7 4.275 6.35Q44 19.85 44 24q0 4.1-1.575 7.75-1.575 3.65-4.275 6.375t-6.35 4.3Q28.15 44 24 44Zm0-3q7.1 0 12.05-4.975Q41 31.05 41 24q0-7.1-4.95-12.05Q31.1 7 24 7q-7.05 0-12.025 4.95Q7 16.9 7 24q0 7.05 4.975 12.025Q16.95 41 24 41Zm0-17Z"/>
  </symbol>
  <symbol id="error" viewBox="0 0 48 48">
    <path d="M24 34q.7 0 1.175-.475.475-.475.475-1.175 0-.7-.475-1.175Q24.7 30.7 24 30.7q-.7 0-1.175.475-.475.475-.475 1.175 0 .7.475 1.175Q23.3 34 24 34Zm-1.35-7.65h3V13.7h-3ZM24 44q-4.1 0-7.75-1.575-3.65-1.575-6.375-4.3-2.725-2.725-4.3-6.375Q4 28.1 4 23.95q0-4.1 1.575-7.75 1.575-3.65 4.3-6.35 2.725-2.7 6.375-4.275Q19.9 4 24.05 4q4.1 0 7.75 1.575 3.65 1.575 6.35 4.275 2.7 2.7 4.275 6.35Q44 19.85 44 24q0 4.1-1.575 7.75-1.575 3.65-4.275 6.375t-6.35 4.3Q28.15 44 24 44Zm.05-3q7.05 0 12-4.975T41 23.95q0-7.05-4.95-12T24 7q-7.05 0-12.025 4.95Q7 16.9 7 24q0 7.05 4.975 12.025Q16.95 41 24.05 41ZM24 24Z"/>
  </symbol>
  <symbol id="restaurant_menu" viewBox="0 0 48 48">
    <path d="m8.25 42-2.1-2.1 21-21q-1.1-2.4-.5-4.975.6-2.575 2.85-4.825 2.25-2.2 5.45-2.825T40.2 7.7q2.1 2.1 1.425 5.25T38.6 18.5q-2.05 2.1-4.575 2.75-2.525.65-4.725-.3l-3.35 3.35 15.6 15.6-2.1 2.1-15.6-15.6Zm6.25-17.55L8.55 18.5Q6 15.95 5.9 12.45q-.1-3.5 2.3-6.2L20.45 18.5Z"/>
  </symbol>
  <symbol id="arrow_drop_down" viewBox="0 0 48 48">
    <path d="m24 30-10-9.95h20Z"/>
  </symbol>
  <symbol id="wifi_password" viewBox="0 0 48 48">
    <path d="M37.7 48q-.85 0-1.425-.575Q35.7 46.85 35.7 46v-5.9q0-.85.575-1.425.575-.575 1.425-.575h.05v-1.95q0-1.75 1.175-2.925Q40.1 32.05 41.85 32.05q1.75 0 2.925 1.175Q45.95 34.4 45.95 36.15v1.95H46q.85 0 1.425.575Q48 39.25 48 40.1V46q0 .85-.575 1.425Q46.85 48 46 48Zm2.05-9.9h4.2v-1.95q0-.95-.575-1.525t-1.525-.575q-.95 0-1.525.575t-.575 1.525ZM11.6 30.15 8.45 27q3.5-3.5 7.325-5.25T24 20q4.4 0 8.225 1.75Q36.05 23.5 39.55 27l-3.15 3.15q-3.05-3.05-6.15-4.35-3.1-1.3-6.25-1.3t-6.25 1.3q-3.1 1.3-6.15 4.35ZM3.15 21.7 0 18.55q4.65-4.75 10.825-7.65Q17 8 24 8q7 0 13.175 2.9Q43.35 13.8 48 18.55l-3.15 3.15q-4.4-4.2-9.625-6.7T24 12.5q-6 0-11.225 2.5T3.15 21.7ZM24 42.55l7.4-7.45q-1.45-1.45-3.325-2.275Q26.2 32 24 32t-4.075.825Q18.05 33.65 16.6 35.1Z"/>
  </symbol>
</svg>
