<svg width="1011" height="568" viewBox="0 0 1011 568" fill="none" xmlns="http://www.w3.org/2000/svg">
<rect width="1011" height="568" fill="#E6E6E6"/>
<g opacity="0.5" filter="url(#filter0_d_46_7)">
<path opacity="0.5" d="M624.994 305.275C624.994 274.286 575.331 249.16 514.075 249.16C455.304 249.16 407.222 272.282 403.408 301.526C398.931 302.014 394.8 303.847 391.68 307.843C383.73 318.02 399.137 334.137 415.865 340.83C434.433 358.675 471.445 370.85 514.081 370.85C516.226 370.85 518.353 370.815 520.462 370.756L534.253 376.743C534.388 376.802 534.541 376.861 534.688 376.914C537.267 377.819 540.046 376.99 541.703 375.051C542.984 374.352 544.024 373.218 544.565 371.761C544.947 370.732 545.023 369.669 544.853 368.658C591.143 361.913 625 340.325 625 314.735C624.994 313.137 624.994 306.867 624.994 305.275Z" fill="#7E8181" stroke="#BDBBBB"/>
<path d="M399.63 305.481C399.63 337.269 449.293 363.041 510.549 363.041C571.806 363.041 622.009 334.907 621.422 297.495C620.922 265.707 571.806 247.915 510.549 247.915C449.293 247.915 399.63 273.686 399.63 305.481Z" fill="#9D9D9D" stroke="#BDBBBB"/>
<path d="M510.549 353.34C571.808 353.34 621.469 327.569 621.469 295.78C621.469 263.99 571.808 238.219 510.549 238.219C449.291 238.219 399.63 263.99 399.63 295.78C399.63 327.569 449.291 353.34 510.549 353.34Z" fill="#BBBBBB" stroke="#BDBBBB"/>
<path d="M518.312 331.993C558.234 331.993 590.597 318.095 590.597 300.95C590.597 283.806 558.234 269.908 518.312 269.908C478.39 269.908 446.026 283.806 446.026 300.95C446.026 318.095 478.39 331.993 518.312 331.993Z" fill="#9D9D9D" stroke="#BDBBBB"/>
<path d="M510.549 322.08C535.553 322.08 555.823 315.708 555.823 307.849C555.823 299.989 535.553 293.617 510.549 293.617C485.545 293.617 465.276 299.989 465.276 307.849C465.276 315.708 485.545 322.08 510.549 322.08Z" fill="white" stroke="#BDBBBB"/>
<path d="M510.549 322.08C535.553 322.08 555.823 315.708 555.823 307.849C555.823 299.989 535.553 293.617 510.549 293.617C485.545 293.617 465.276 299.989 465.276 307.849C465.276 315.708 485.545 322.08 510.549 322.08Z" fill="#828483" stroke="#BDBBBB"/>
<path d="M510.549 315.828C563.056 315.828 605.621 288.463 605.621 254.707C605.621 220.951 563.056 193.586 510.549 193.586C458.043 193.586 415.478 220.951 415.478 254.707C415.478 288.463 458.043 315.828 510.549 315.828Z" fill="white" stroke="#BDBBBB"/>
<path d="M597.301 279.744C597.624 279.28 597.942 278.81 598.247 278.34C598.3 278.263 598.347 278.187 598.394 278.111C598.653 277.717 598.899 277.317 599.146 276.918C599.217 276.8 599.281 276.689 599.352 276.571C599.569 276.207 599.781 275.843 599.986 275.478C600.063 275.337 600.139 275.196 600.221 275.055C600.409 274.714 600.597 274.368 600.774 274.021C600.856 273.862 600.932 273.704 601.015 273.545C601.179 273.216 601.344 272.881 601.502 272.546C601.585 272.376 601.661 272.2 601.743 272.029C601.89 271.706 602.037 271.383 602.178 271.06C602.26 270.877 602.337 270.689 602.413 270.507C602.542 270.19 602.672 269.873 602.795 269.555C602.871 269.362 602.942 269.168 603.018 268.974C603.136 268.662 603.247 268.351 603.353 268.034C603.424 267.834 603.494 267.628 603.559 267.428C603.659 267.117 603.759 266.811 603.853 266.5C603.917 266.294 603.976 266.083 604.041 265.877C604.129 265.572 604.211 265.26 604.293 264.949C604.346 264.737 604.405 264.526 604.458 264.308C604.534 264.003 604.605 263.691 604.669 263.386C604.716 263.168 604.769 262.951 604.81 262.733C604.875 262.422 604.928 262.111 604.987 261.799C605.028 261.582 605.069 261.364 605.104 261.147C605.157 260.83 605.198 260.512 605.245 260.195C605.275 259.978 605.31 259.766 605.333 259.549C605.375 259.22 605.404 258.891 605.439 258.562C605.457 258.356 605.486 258.15 605.498 257.945C605.527 257.58 605.545 257.216 605.568 256.852C605.58 256.675 605.592 256.505 605.598 256.329C605.621 255.788 605.633 255.248 605.633 254.701C605.633 254.143 605.621 253.585 605.598 253.027C605.592 252.85 605.574 252.68 605.568 252.504C605.545 252.122 605.527 251.734 605.492 251.352C605.474 251.152 605.451 250.958 605.433 250.758C605.398 250.4 605.363 250.042 605.316 249.683C605.292 249.483 605.263 249.284 605.234 249.084C605.181 248.725 605.128 248.373 605.069 248.014C605.034 247.821 605.004 247.632 604.969 247.439C604.904 247.074 604.828 246.704 604.752 246.34C604.716 246.163 604.675 245.987 604.64 245.817C604.552 245.429 604.458 245.041 604.358 244.653C604.317 244.506 604.282 244.354 604.24 244.207C604.123 243.778 604 243.349 603.87 242.92C603.841 242.814 603.812 242.714 603.776 242.609C603.612 242.08 603.435 241.557 603.253 241.034V241.028C593.599 213.846 555.77 193.568 510.567 193.568C507.224 193.568 503.921 193.68 500.666 193.897C527.313 195.989 550.106 207.947 562.592 224.881C547.303 221.555 529.529 219.651 510.573 219.651C470.041 219.651 434.95 228.354 417.887 241.028C416.33 245.417 415.501 249.989 415.501 254.684C415.501 263.609 418.48 272.082 423.821 279.727C442.354 290.286 474.283 297.26 510.573 297.26C526.209 297.26 541.034 295.962 554.331 293.647C541.239 305.645 522.213 313.783 500.672 315.481C503.927 315.699 507.23 315.81 510.573 315.81C549.178 315.828 582.423 301.015 597.301 279.744Z" fill="#C1C1C1" stroke="#BDBBBB"/>
<path d="M510.549 287.365C569.667 287.365 617.591 266.227 617.591 240.153C617.591 214.078 569.667 192.94 510.549 192.94C451.432 192.94 403.508 214.078 403.508 240.153C403.508 266.227 451.432 287.365 510.549 287.365Z" fill="#7B7B7B" stroke="#BDBBBB"/>
<g opacity="0.4">
<path d="M449.393 240.152C449.393 217.554 485.401 198.663 533.489 194.027C526.097 193.316 518.423 192.934 510.549 192.934C451.432 192.934 403.508 214.069 403.508 240.147C403.508 266.224 451.432 287.359 510.549 287.359C518.423 287.359 526.097 286.983 533.489 286.266C485.401 281.648 449.393 262.757 449.393 240.152Z" fill="#B9BDBD" stroke="#BDBBBB"/>
</g>
<path d="M510.549 287.365C558.328 287.365 597.06 270.281 597.06 249.207C597.06 228.133 558.328 211.049 510.549 211.049C462.771 211.049 424.039 228.133 424.039 249.207C424.039 270.281 462.771 287.365 510.549 287.365Z" fill="#9D9B95" stroke="#BDBBBB"/>
<path d="M510.549 277.106C545.484 277.106 573.803 264.615 573.803 249.207C573.803 233.799 545.484 221.309 510.549 221.309C475.615 221.309 447.295 233.799 447.295 249.207C447.295 264.615 475.615 277.106 510.549 277.106Z" fill="#9D9C9A" stroke="#BDBBBB"/>
<path d="M510.549 258.908C528.849 258.908 543.684 253.91 543.684 247.744C543.684 241.578 528.849 236.58 510.549 236.58C492.25 236.58 477.415 241.578 477.415 247.744C477.415 253.91 492.25 258.908 510.549 258.908Z" fill="#9D9B95" stroke="#BDBBBB"/>
<path d="M615.093 239.183C614.993 248.091 608.606 255.406 602.014 260.648C592.201 268.451 580.114 273.198 568.198 276.724C536.486 286.102 501.583 286.819 469.154 281.049C455.304 278.581 441.361 274.662 428.839 268.133C420.437 263.75 411.682 257.798 407.592 248.925C404.119 241.398 406.828 233.201 411.599 226.973C418.269 218.271 428.933 212.636 438.834 208.505C468.49 196.13 502.735 193.88 534.406 196.859C549.747 198.304 565.037 201.313 579.527 206.619C590.132 210.503 600.832 215.803 608.659 224.135C612.555 228.266 615.029 233.472 615.093 239.183C615.123 241.721 620.129 245.012 620.088 241.134C619.847 219.528 594.763 206.954 577.446 200.731C547.045 189.808 512.988 188.051 481.117 191.77C466.204 193.51 451.35 196.788 437.359 202.306C427.041 206.378 416.67 211.854 409.096 220.133C403.391 226.368 399.918 234.4 401.346 242.938C402.909 252.274 409.502 259.907 416.759 265.548C426.542 273.157 438.276 278.07 450.045 281.689C465.152 286.337 480.911 288.752 496.659 289.745C527.607 291.702 560.965 288.587 589.445 275.549C603.4 269.162 619.888 258.25 620.082 241.122C620.111 238.584 615.134 235.293 615.093 239.183Z" fill="white"/>
<path d="M615.093 239.183C614.993 248.091 608.606 255.406 602.014 260.648C592.201 268.451 580.114 273.198 568.198 276.724C536.486 286.102 501.583 286.819 469.154 281.049C455.304 278.581 441.361 274.662 428.839 268.133C420.437 263.75 411.682 257.798 407.592 248.925C404.119 241.398 406.828 233.201 411.599 226.973C418.269 218.271 428.933 212.636 438.834 208.505C468.49 196.13 502.735 193.88 534.406 196.859C549.747 198.304 565.037 201.313 579.527 206.619C590.132 210.503 600.832 215.803 608.659 224.135C612.555 228.266 615.029 233.472 615.093 239.183ZM615.093 239.183C615.123 241.721 620.129 245.012 620.088 241.134C619.847 219.528 594.763 206.954 577.446 200.731C547.045 189.808 512.988 188.051 481.117 191.77C466.204 193.51 451.35 196.788 437.359 202.306C427.041 206.378 416.67 211.854 409.096 220.133C403.391 226.368 399.918 234.4 401.346 242.938C402.909 252.274 409.502 259.907 416.759 265.548C426.542 273.157 438.276 278.07 450.045 281.689C465.152 286.337 480.911 288.752 496.659 289.745C527.607 291.702 560.965 288.587 589.445 275.549C603.4 269.162 619.888 258.25 620.082 241.122C620.111 238.584 615.134 235.293 615.093 239.183Z" stroke="#BDBBBB"/>
<path d="M431.043 242.068C431.043 242.068 434.175 235.411 444.363 233.06C454.552 230.71 460.816 241.68 460.816 241.68C460.816 241.68 458.859 245.206 447.107 245.987C435.356 246.769 431.043 242.068 431.043 242.068Z" fill="#B5B4B2" stroke="#BDBBBB"/>
<path d="M507.042 260.477C507.042 260.477 504.732 253.82 497.229 251.469C489.725 249.119 485.107 260.089 485.107 260.089C485.107 260.089 486.552 263.615 495.208 264.396C503.863 265.178 507.042 260.477 507.042 260.477Z" fill="#B5B4B2" stroke="#BDBBBB"/>
<path d="M562.275 235.017C562.275 235.017 559.966 228.36 552.462 226.009C544.959 223.659 540.34 234.629 540.34 234.629C540.34 234.629 541.786 238.155 550.441 238.936C559.096 239.718 562.275 235.017 562.275 235.017Z" fill="#B5B4B2" stroke="#BDBBBB"/>
<path d="M543.472 273.757C543.472 273.757 546.193 267.681 555.036 265.542C563.879 263.397 569.326 273.404 569.326 273.404C569.326 273.404 567.628 276.618 557.421 277.335C547.215 278.046 543.472 273.757 543.472 273.757Z" fill="#B5B4B2" stroke="#BDBBBB"/>
<path d="M516.049 250.253C516.049 250.253 518.359 246.134 525.862 244.683C533.366 243.231 537.984 250.012 537.984 250.012C537.984 250.012 536.539 252.192 527.883 252.68C519.222 253.162 516.049 250.253 516.049 250.253Z" fill="#B5B4B2" stroke="#BDBBBB"/>
<path d="M461.597 218.917C461.597 218.917 462.749 214.798 466.504 213.347C470.258 211.895 472.568 218.676 472.568 218.676C472.568 218.676 471.845 220.856 467.514 221.344C463.19 221.826 461.597 218.917 461.597 218.917Z" fill="#B5B4B2" stroke="#BDBBBB"/>
<path d="M426.736 244.771C426.736 244.771 427.887 240.652 431.642 239.201C435.397 237.749 437.706 244.53 437.706 244.53C437.706 244.53 436.983 246.71 432.653 247.198C428.322 247.68 426.736 244.771 426.736 244.771Z" fill="#9D9C9A" stroke="#BDBBBB"/>
<path d="M575.983 251.434C575.983 251.434 577.758 247.327 583.516 245.876C589.28 244.424 592.824 251.193 592.824 251.193C592.824 251.193 591.713 253.367 585.067 253.855C578.422 254.343 575.983 251.434 575.983 251.434Z" fill="#9D9C9A" stroke="#BDBBBB"/>
<path d="M575.202 261.617C575.202 261.617 576.354 257.498 580.108 256.047C583.863 254.595 586.172 261.376 586.172 261.376C586.172 261.376 585.449 263.556 581.119 264.044C576.788 264.52 575.202 261.617 575.202 261.617Z" fill="#B5B4B2" stroke="#BDBBBB"/>
<path d="M558.461 243.308C558.461 243.308 559.613 240.493 563.368 239.5C567.123 238.507 569.432 243.143 569.432 243.143C569.432 243.143 568.709 244.63 564.378 244.965C560.048 245.294 558.461 243.308 558.461 243.308Z" fill="#B5B4B2" stroke="#BDBBBB"/>
<path d="M511.654 261.353C511.654 261.353 512.806 258.538 516.561 257.545C520.315 256.552 522.624 261.188 522.624 261.188C522.624 261.188 521.902 262.675 517.571 263.01C513.241 263.339 511.654 261.353 511.654 261.353Z" fill="#B5B4B2" stroke="#BDBBBB"/>
<path d="M494.914 231.015C494.914 231.015 496.065 228.201 499.82 227.208C503.575 226.215 505.884 230.851 505.884 230.851C505.884 230.851 505.161 232.338 500.831 232.672C496.506 233.001 494.914 231.015 494.914 231.015Z" fill="#B5B4B2" stroke="#BDBBBB"/>
<path d="M521.59 280.191C521.59 280.191 522.742 275.649 526.497 274.045C530.251 272.441 532.561 279.926 532.561 279.926C532.561 279.926 531.838 282.33 527.507 282.864C523.177 283.393 521.59 280.191 521.59 280.191Z" fill="#B5B4B2" stroke="#BDBBBB"/>
<path d="M504.674 212.189C504.674 212.189 505.825 208.07 509.58 206.619C513.335 205.167 515.644 211.948 515.644 211.948C515.644 211.948 514.921 214.128 510.591 214.61C506.26 215.092 504.674 212.189 504.674 212.189Z" fill="#9D9C9A" stroke="#BDBBBB"/>
<path d="M565.724 225.145C565.724 225.145 566.876 221.026 570.63 219.575C574.385 218.124 576.694 224.905 576.694 224.905C576.694 224.905 575.972 227.085 571.641 227.566C567.311 228.048 565.724 225.145 565.724 225.145Z" fill="#9D9C9A" stroke="#BDBBBB"/>
<path d="M531.468 219.652C531.468 219.652 533.148 216.837 538.595 215.844C544.048 214.851 547.403 219.487 547.403 219.487C547.403 219.487 546.357 220.974 540.064 221.309C533.771 221.638 531.468 219.652 531.468 219.652Z" fill="#9D9C9A" stroke="#BDBBBB"/>
<path d="M577.493 237.173C577.493 237.173 578.645 233.054 582.4 231.603C586.155 230.152 588.464 236.933 588.464 236.933C588.464 236.933 587.741 239.112 583.41 239.6C579.08 240.082 577.493 237.173 577.493 237.173Z" fill="#9D9C9A" stroke="#BDBBBB"/>
<path d="M501.389 245.018C501.389 245.018 502.541 240.899 506.295 239.447C510.05 237.996 512.359 244.777 512.359 244.777C512.359 244.777 511.636 246.957 507.306 247.439C502.981 247.926 501.389 245.018 501.389 245.018Z" fill="#9D9C9A" stroke="#BDBBBB"/>
<path d="M450.398 229.141C450.398 229.141 451.55 226.456 455.304 225.504C459.059 224.558 461.368 228.982 461.368 228.982C461.368 228.982 460.646 230.404 456.315 230.722C451.984 231.039 450.398 229.141 450.398 229.141Z" fill="#9D9C9A" stroke="#BDBBBB"/>
<path d="M436.137 260.084C436.137 260.084 434.568 255.383 438.488 253.426C442.407 251.469 453.371 250.294 453.371 256.952C453.371 263.609 452.59 261.065 452.59 261.065C452.59 261.065 445.539 263.609 436.137 260.084Z" fill="#B5B4B2" stroke="#BDBBBB"/>
<path d="M481.575 215.82C481.575 215.82 484.707 209.163 494.896 206.813C505.085 204.462 511.349 215.433 511.349 215.433C511.349 215.433 509.392 218.958 497.64 219.74C485.888 220.521 481.575 215.82 481.575 215.82Z" fill="#B5B4B2" stroke="#BDBBBB"/>
<path d="M460.98 273.692C460.98 273.692 462.549 262.446 469.089 261.4C475.629 260.354 474.583 269.244 480.071 266.894C485.565 264.537 487.916 271.6 486.611 276.307C485.301 281.019 465.164 281.019 460.98 273.692Z" fill="#B5B4B2" stroke="#BDBBBB"/>
<path d="M496.283 271.342C495.525 271.13 498.116 264.802 504.392 266.894C510.667 268.985 510.144 271.077 510.144 271.077C510.144 271.077 505.696 273.956 496.283 271.342Z" fill="#B5B4B2" stroke="#BDBBBB"/>
<path d="M456.274 249.636C455.516 249.425 458.107 243.096 464.383 245.188C470.658 247.28 470.135 249.372 470.135 249.372C470.135 249.372 465.687 252.251 456.274 249.636Z" fill="#B5B4B2" stroke="#BDBBBB"/>
<path d="M482.163 226.362C481.405 226.15 483.996 219.822 490.272 221.914C496.547 224.006 496.024 226.097 496.024 226.097C496.024 226.097 491.576 228.977 482.163 226.362Z" fill="#B5B4B2" stroke="#BDBBBB"/>
<path d="M469.612 234.729C469.612 234.729 473.796 226.362 478.502 228.712C483.209 231.068 487.134 235.252 487.134 235.252C487.134 235.252 485.824 236.298 477.198 236.821C468.566 237.344 469.612 234.729 469.612 234.729Z" fill="#B5B4B2" stroke="#BDBBBB"/>
<path d="M516.684 228.189C516.684 228.189 519.299 217.207 521.655 217.207C524.011 217.207 529.241 221.655 529.241 224.27C529.241 226.885 539.7 218.253 539.964 227.931C540.217 237.608 516.684 228.189 516.684 228.189Z" fill="#B5B4B2" stroke="#BDBBBB"/>
<path d="M549.107 257.222C549.107 257.222 552.245 246.498 560.876 248.59C569.508 250.682 569.244 255.912 569.244 255.912C569.244 255.912 566.893 260.36 549.107 257.222Z" fill="#B5B4B2" stroke="#BDBBBB"/>
<path d="M445.345 229.729C445.345 229.729 447.301 226.597 450.239 228.36C453.177 230.122 458.072 227.378 459.053 231.297C460.034 235.211 445.345 229.729 445.345 229.729Z" fill="#959595" stroke="#BDBBBB"/>
<path d="M575.989 230.957C575.989 230.957 575.014 227.584 572.352 228.877C569.69 230.169 566.312 226.744 564.807 230.446C563.309 234.153 575.989 230.957 575.989 230.957Z" fill="#959595" stroke="#BDBBBB"/>
<path d="M435.743 249.707C435.743 249.707 438.094 246.575 442.601 248.531C447.107 250.488 447.495 243.049 452.59 248.531C457.684 254.014 432.024 251.469 435.743 249.707Z" fill="#959595" stroke="#BDBBBB"/>
<path d="M462.778 254.372C462.778 254.372 463.413 251.223 467.426 252.85C471.439 254.478 473.555 251.657 475.882 254.59C478.203 257.522 462.144 256.111 462.778 254.372Z" fill="#959595" stroke="#BDBBBB"/>
<path d="M502.734 218.729C502.734 218.729 503.369 215.579 507.382 217.207C511.396 218.835 513.511 216.014 515.838 218.946C518.159 221.878 502.1 220.462 502.734 218.729Z" fill="#959595" stroke="#BDBBBB"/>
<path d="M528.976 266.712C528.976 266.712 529.611 263.562 533.624 265.19C537.637 266.817 539.753 263.997 542.079 266.929C544.406 269.861 528.342 268.451 528.976 266.712Z" fill="#959595" stroke="#BDBBBB"/>
<path d="M534.247 235.716C534.247 235.716 533.982 230.945 537.244 234.042C540.505 237.132 534.247 235.716 534.247 235.716Z" fill="#959595" stroke="#BDBBBB"/>
<path d="M572.634 236.498C572.634 236.498 572.37 231.726 575.631 234.823C578.898 237.92 572.634 236.498 572.634 236.498Z" fill="#959595" stroke="#BDBBBB"/>
<path d="M546.193 221.42C546.193 221.42 545.928 216.649 549.189 219.746C552.456 222.836 546.193 221.42 546.193 221.42Z" fill="#959595" stroke="#BDBBBB"/>
<path d="M540.317 261.964C540.317 261.964 540.052 257.193 543.313 260.289C546.58 263.38 540.317 261.964 540.317 261.964Z" fill="#959595" stroke="#BDBBBB"/>
<path d="M463.677 232.061C463.677 232.061 463.73 226.714 467.661 229.928C471.592 233.143 463.677 232.061 463.677 232.061Z" fill="#959595" stroke="#BDBBBB"/>
<path d="M569.837 267.317C569.837 267.317 569.89 261.97 573.821 265.184C577.758 268.392 569.837 267.317 569.837 267.317Z" fill="#959595" stroke="#BDBBBB"/>
<path d="M483.315 248.52C483.315 248.52 484.084 244.383 489.185 246.293C494.285 248.202 494.749 241.087 498.545 246.064C502.341 251.04 483.315 248.52 483.315 248.52Z" fill="#959595" stroke="#BDBBBB"/>
<path d="M492.939 277.711C492.939 277.711 494.115 272.229 499.009 275.754C503.904 279.28 508.217 272.035 510.955 275.167C513.699 278.299 516.437 274.579 515.462 278.299C514.48 282.024 490.195 282.612 492.939 277.711Z" fill="#959595" stroke="#BDBBBB"/>
<path d="M513.505 230.316C513.505 230.316 512.524 224.047 521.537 228.747C530.545 233.448 528.001 227.966 530.545 233.448C533.089 238.93 512.524 233.642 513.505 230.316Z" fill="#959595" stroke="#BDBBBB"/>
<path d="M530.345 239.13C530.345 239.13 533.089 235.211 535.046 240.499C537.009 245.787 521.731 240.893 530.345 239.13Z" fill="#959595" stroke="#BDBBBB"/>
<g opacity="0.2">
<path d="M514.093 242.045C515.626 240.493 514.668 239.565 514.668 239.565L509.856 235.046C509.856 235.046 510.649 236.051 509.439 237.244C508.228 238.437 506.313 237.585 506.313 237.585L511.319 242.908C511.325 242.908 512.559 243.596 514.093 242.045Z" fill="#ABABAB" stroke="#BDBBBB"/>
<path d="M507.241 244.783C507.241 244.783 507.611 246.516 505.385 247.256C503.158 247.997 501.301 245.77 501.301 245.77L503.498 252.909C505.59 252.457 507.682 251.992 509.715 251.334L507.241 244.783Z" fill="#ABABAB" stroke="#BDBBBB"/>
<path d="M488.979 241.504C491.635 242.932 492.493 241.304 492.493 241.304L493.145 240.017C491.241 238.913 489.443 237.591 487.792 236.404L486.758 238.166C486.758 238.172 486.323 240.082 488.979 241.504Z" fill="#ABABAB" stroke="#BDBBBB"/>
<path d="M496.394 252.421C494.632 254.866 496.13 255.929 496.13 255.929L497.317 256.74C498.663 255.001 500.208 253.391 501.6 251.91L499.99 250.653C499.996 250.659 498.163 249.977 496.394 252.421Z" fill="#ABABAB" stroke="#BDBBBB"/>
<path d="M481.487 252.703C479.725 255.148 481.223 256.211 481.223 256.211L482.41 257.022C483.755 255.283 485.301 253.673 486.693 252.192L485.083 250.935C485.089 250.941 483.25 250.259 481.487 252.703Z" fill="#ABABAB" stroke="#BDBBBB"/>
<path d="M517.295 252.874L523.118 245.934L519.305 244.365L513.717 251.082L517.295 252.874Z" fill="#ABABAB" stroke="#BDBBBB"/>
<path d="M521.426 251.534L524.487 257.081L526.638 255.136L523.494 249.378L521.426 251.534Z" fill="#ABABAB" stroke="#BDBBBB"/>
<path d="M525.392 244.401L525.768 247.362L531.996 248.49L531.85 245.588L525.392 244.401Z" fill="#ABABAB" stroke="#BDBBBB"/>
<path d="M506.824 255.4L508.652 257.762L514.592 255.565L512.988 253.144L506.824 255.4Z" fill="#ABABAB" stroke="#BDBBBB"/>
<path d="M524.757 243.384L524.599 240.487L518.135 239.318L518.523 242.285L524.757 243.384Z" fill="#ABABAB" stroke="#BDBBBB"/>
<path d="M498.439 245.265L491.976 244.101L492.364 247.063L498.598 248.167L498.439 245.265Z" fill="#ABABAB" stroke="#BDBBBB"/>
<path d="M502.699 242.397L501.706 241.01L498.145 242.133L499.268 243.502L502.699 242.397Z" fill="#ABABAB" stroke="#BDBBBB"/>
<path d="M486.664 249.912L487.792 251.275L491.218 250.177L490.231 248.784L486.664 249.912Z" fill="#ABABAB" stroke="#BDBBBB"/>
<path d="M513.957 245.652L517.389 244.553L516.396 243.161L512.835 244.289L513.957 245.652Z" fill="#ABABAB" stroke="#BDBBBB"/>
<path d="M525.95 250.794L527.078 252.157L530.504 251.058L529.511 249.671L525.95 250.794Z" fill="#ABABAB" stroke="#BDBBBB"/>
<path d="M484.096 245.958L483.103 244.565L479.542 245.688L480.665 247.057L484.096 245.958Z" fill="#ABABAB" stroke="#BDBBBB"/>
<path d="M516.555 255.847L517.677 257.21L521.108 256.111L520.115 254.719L516.555 255.847Z" fill="#ABABAB" stroke="#BDBBBB"/>
<path d="M533.289 249.718L532.367 251.223L534.523 254.114L535.516 252.721L533.289 249.718Z" fill="#ABABAB" stroke="#BDBBBB"/>
<path d="M504.638 239.107L502.065 236.398L501.33 238.008L503.822 240.611L504.638 239.107Z" fill="#ABABAB" stroke="#BDBBBB"/>
<path d="M487.199 243.607L484.625 240.899L483.891 242.509L486.382 245.112L487.199 243.607Z" fill="#ABABAB" stroke="#BDBBBB"/>
</g>
<path d="M511.325 241.498C511.325 241.498 512.559 242.186 514.093 240.634C515.626 239.083 514.668 238.155 514.668 238.155L509.856 233.636C509.856 233.636 510.649 234.641 509.439 235.834C508.228 237.026 506.313 236.174 506.313 236.174L511.325 241.498Z" fill="#A6A6A6" stroke="#BDBBBB"/>
<path d="M509.715 249.93L507.247 243.378C507.247 243.378 507.617 245.112 505.39 245.852C503.163 246.592 501.307 244.366 501.307 244.366L503.504 251.505C505.59 251.058 507.682 250.594 509.715 249.93Z" fill="#A6A6A6" stroke="#BDBBBB"/>
<path d="M493.139 238.613C491.235 237.508 489.437 236.186 487.786 234.999L486.752 236.762C486.752 236.762 486.317 238.672 488.973 240.1C491.629 241.527 492.487 239.9 492.487 239.9L493.139 238.613Z" fill="#A6A6A6" stroke="#BDBBBB"/>
<path d="M497.323 255.342C498.668 253.602 500.214 251.992 501.606 250.512L499.996 249.254C499.996 249.254 498.163 248.573 496.394 251.017C494.632 253.461 496.13 254.525 496.13 254.525L497.323 255.342Z" fill="#A6A6A6" stroke="#BDBBBB"/>
<path d="M482.416 255.618C483.761 253.879 485.307 252.269 486.699 250.788L485.089 249.53C485.089 249.53 483.256 248.849 481.487 251.293C479.725 253.737 481.223 254.801 481.223 254.801L482.416 255.618Z" fill="#A6A6A6" stroke="#BDBBBB"/>
<path d="M519.304 242.961L513.717 249.677L517.295 251.469L523.118 244.53L519.304 242.961Z" fill="#A6A6A6" stroke="#BDBBBB"/>
<path d="M521.426 250.13L524.487 255.677L526.638 253.732L523.494 247.967L521.426 250.13Z" fill="#A6A6A6" stroke="#BDBBBB"/>
<path d="M525.768 245.958L531.996 247.08L531.85 244.183L525.392 242.991L525.768 245.958Z" fill="#A6A6A6" stroke="#BDBBBB"/>
<path d="M508.652 256.358L514.592 254.161L512.988 251.74L506.824 253.99L508.652 256.358Z" fill="#A6A6A6" stroke="#BDBBBB"/>
<path d="M518.523 240.875L524.757 241.974L524.599 239.077L518.135 237.914L518.523 240.875Z" fill="#A6A6A6" stroke="#BDBBBB"/>
<path d="M492.364 245.658L498.598 246.757L498.439 243.86L491.976 242.697L492.364 245.658Z" fill="#A6A6A6" stroke="#BDBBBB"/>
<path d="M499.268 242.091L502.699 240.993L501.706 239.6L498.145 240.728L499.268 242.091Z" fill="#A6A6A6" stroke="#BDBBBB"/>
<path d="M487.792 249.865L491.218 248.767L490.231 247.38L486.664 248.502L487.792 249.865Z" fill="#A6A6A6" stroke="#BDBBBB"/>
<path d="M513.957 244.248L517.389 243.149L516.396 241.757L512.835 242.885L513.957 244.248Z" fill="#A6A6A6" stroke="#BDBBBB"/>
<path d="M527.078 250.753L530.504 249.654L529.511 248.261L525.95 249.389L527.078 250.753Z" fill="#A6A6A6" stroke="#BDBBBB"/>
<path d="M480.665 245.646L484.096 244.548L483.103 243.155L479.542 244.283L480.665 245.646Z" fill="#A6A6A6" stroke="#BDBBBB"/>
<path d="M517.677 255.806L521.108 254.701L520.115 253.314L516.555 254.437L517.677 255.806Z" fill="#A6A6A6" stroke="#BDBBBB"/>
<path d="M532.367 249.818L534.523 252.703L535.516 251.317L533.289 248.314L532.367 249.818Z" fill="#A6A6A6" stroke="#BDBBBB"/>
<path d="M501.33 236.598L503.822 239.201L504.638 237.702L502.065 234.993L501.33 236.598Z" fill="#A6A6A6" stroke="#BDBBBB"/>
<path d="M483.891 241.098L486.382 243.702L487.199 242.203L484.625 239.494L483.891 241.098Z" fill="#A6A6A6" stroke="#BDBBBB"/>
<path d="M437.177 325.794C438.341 320.264 435.597 315.54 432.394 312.097C428.928 307.713 424.086 305.081 424.086 305.081C424.086 305.081 411.517 296.355 399.648 295.321C399.648 295.474 399.636 295.621 399.636 295.774C399.636 311.286 411.464 325.365 430.696 335.718C431.607 335.048 432.453 334.267 433.217 333.362C433.464 333.068 433.693 332.78 433.916 332.492L473.179 349.985C484.86 352.153 497.44 353.34 510.555 353.34C511.578 353.34 512.594 353.334 513.611 353.316L437.177 325.794Z" fill="#9D9D9D" stroke="#BDBBBB"/>
<path d="M431.46 302.507C431.46 302.507 401.099 281.407 388.155 298.406C375.21 315.405 424.162 348.551 439.974 329.836C453.124 314.259 431.46 302.507 431.46 302.507Z" fill="#BDBDBD" stroke="#BDBBBB"/>
<path d="M425.743 317.82L535.457 357.329C538.754 358.516 540.464 362.148 539.277 365.444C538.09 368.74 534.458 370.45 531.162 369.263C531.021 369.21 530.868 369.152 530.727 369.087L424.209 321.633C423.169 321.169 422.705 319.953 423.169 318.919C423.604 317.926 424.738 317.462 425.743 317.82Z" fill="#BDBDBD" stroke="#BDBBBB"/>
<path d="M430.837 301.555C430.837 301.555 402.891 282.136 390.981 297.783C379.071 313.431 424.121 343.938 438.676 326.71C450.78 312.373 430.837 301.555 430.837 301.555Z" fill="#BBBBBB" stroke="#BDBBBB"/>
<path d="M427.505 316.351L537.22 355.86C540.516 357.047 542.226 360.679 541.039 363.975C539.852 367.271 536.221 368.981 532.925 367.794C532.784 367.742 532.631 367.683 532.49 367.618L425.972 320.164C424.932 319.7 424.468 318.484 424.932 317.45C425.367 316.457 426.501 315.993 427.505 316.351Z" fill="#BBBBBB" stroke="#BDBBBB"/>
<path opacity="0.4" d="M429.856 302.225C429.856 302.225 413.873 291.12 401.587 293.288C412.169 294.833 422.805 302.225 422.805 302.225C422.805 302.225 441.431 312.326 430.12 325.717C427.999 328.232 425.179 329.654 421.982 330.218C428.028 331.099 433.593 329.96 437.171 325.717C448.482 312.326 429.856 302.225 429.856 302.225Z" fill="white" stroke="#BDBBBB"/>
</g>
<defs>
<filter id="filter0_d_46_7" x="381.5" y="189.5" width="248" height="196.28" filterUnits="userSpaceOnUse" color-interpolation-filters="sRGB">
<feFlood flood-opacity="0" result="BackgroundImageFix"/>
<feColorMatrix in="SourceAlpha" type="matrix" values="0 0 0 0 0 0 0 0 0 0 0 0 0 0 0 0 0 0 127 0" result="hardAlpha"/>
<feOffset dy="4"/>
<feGaussianBlur stdDeviation="2"/>
<feComposite in2="hardAlpha" operator="out"/>
<feColorMatrix type="matrix" values="0 0 0 0 0 0 0 0 0 0 0 0 0 0 0 0 0 0 0.25 0"/>
<feBlend mode="normal" in2="BackgroundImageFix" result="effect1_dropShadow_46_7"/>
<feBlend mode="normal" in="SourceGraphic" in2="effect1_dropShadow_46_7" result="shape"/>
</filter>
</defs>
</svg>
