<svg width="320" height="81" viewBox="0 0 320 81" fill="none" xmlns="http://www.w3.org/2000/svg">
<g clip-path="url(#clip0_1_2)">
<path d="M47.9535 17.8895C48.7856 17.8895 49.2017 17.0575 49.2017 15.8094C49.2017 14.5613 47.9535 13.7292 46.7054 13.7292C45.4573 13.7292 44.6253 14.5613 44.6253 15.8094C44.6253 17.0575 45.0413 17.8895 45.8734 17.8895C37.5526 18.3056 30.48 22.0499 25.0716 27.4584C20.9112 24.1301 11.7584 24.9622 11.3424 24.5461C9.67824 23.714 8.43013 22.0499 7.18202 22.4659C6.34995 22.882 5.93391 22.4659 5.51788 22.4659C4.26977 21.6339 3.85373 17.4735 1.35752 19.9697C1.77355 21.2178 1.35752 22.0499 0.109409 22.0499C-0.722663 25.7942 3.4377 23.714 4.26977 24.1301C4.6858 24.1301 5.10184 24.5461 5.10184 25.3782C5.51788 26.6263 7.59806 27.0423 9.2622 27.8744C13.8386 30.3706 12.5905 34.531 17.5829 37.0272C17.999 37.4432 18.415 37.8593 19.2471 37.8593C18.831 38.2753 18.831 39.1074 18.831 39.5234C17.5829 38.2753 15.5027 37.0272 13.4226 35.7791C10.5103 34.531 8.43013 34.1149 7.18202 34.531C0.109409 40.7715 8.01409 49.9243 17.5829 48.6762C9.67824 50.7564 -0.722663 44.0998 5.10184 35.7791C-2.80284 43.6838 10.0943 52.0045 17.5829 49.5083V49.9243H67.5072C68.7553 38.2753 64.1789 27.0423 54.1941 21.2178C64.595 25.3782 72.0836 35.7791 72.0836 47.8441C72.0836 48.6762 72.0836 49.5083 72.0836 49.9243H75.828C76.244 48.6762 76.244 47.4281 76.244 46.18C82.4845 32.4508 92.0534 17.4735 99.958 4.16036C101.206 -7.48865 74.1638 28.2904 78.3242 34.947L75.4119 40.3555C74.5798 37.8593 73.7478 35.3631 72.4997 32.8668C72.9157 30.7867 73.7478 28.2904 74.5798 26.2103C77.4921 25.7942 79.5723 24.5461 80.8204 21.2178C83.3166 14.9773 84.5647 8.73675 86.2289 2.49622C83.7326 7.48865 81.6525 12.8971 79.9883 18.3056C79.5723 19.5537 78.7402 18.7216 78.7402 17.8895C80.8204 12.4811 82.0685 7.07261 83.7326 1.66414C81.2364 7.07261 79.1562 11.649 77.4921 17.4735C77.0761 18.3056 76.244 18.3056 76.66 17.0575C78.3242 11.649 79.9883 6.65658 81.6525 0.832072C79.1562 6.24054 76.66 11.233 74.9959 16.6414C74.5798 17.0575 73.7478 17.4735 74.1638 16.2254C75.828 10.8169 77.9081 5.40847 79.1562 0C76.244 5.8245 73.3317 11.649 71.2516 17.8895C70.0035 21.2178 71.2516 23.298 72.9157 25.7942C72.4997 27.4584 71.6676 29.1225 71.2516 30.7867C65.8431 23.298 57.5224 18.3056 47.9535 17.8895ZM24.6555 28.2904C24.2395 28.7065 23.8235 29.1225 23.8235 29.5386C21.3272 27.4584 17.999 26.2103 15.0867 26.2103C18.415 25.7942 22.1593 26.6263 24.6555 28.2904ZM17.5829 44.0998V44.5158C17.1669 44.0998 16.7508 43.6838 15.5027 44.0998C14.6707 44.0998 14.2546 43.2677 13.4226 43.6838C11.3424 44.0998 10.0943 43.6838 8.43013 43.2677C11.7584 42.8517 15.5027 44.5158 12.5905 39.1074C13.8386 39.9395 13.8386 40.7715 14.2546 41.1876C16.3348 41.1876 15.9188 42.4357 16.7508 43.6838C16.7508 43.6838 17.1669 44.0998 17.5829 44.0998ZM15.5027 43.2677C16.3348 42.8517 15.0867 41.1876 14.2546 41.6036C13.4226 42.4357 14.6707 44.0998 15.5027 43.2677Z" fill="white"/>
<path d="M30.064 54.0847C30.8961 55.3328 32.1442 56.5809 32.5602 57.829C32.9763 59.4931 29.2319 63.6535 30.064 65.7337C30.8961 70.3101 29.2319 70.3101 27.1518 73.2223C29.2319 74.0544 31.7282 75.7185 33.8083 76.5506C40.0489 66.5657 51.6979 60.7412 60.4346 56.9969C60.0186 55.7488 59.1865 55.3328 57.5224 55.7488C52.946 57.413 48.3696 59.0771 43.7932 61.1573C37.9687 63.6535 35.8885 62.4054 35.8885 59.0771C35.8885 56.5809 34.6404 54.9167 33.3923 54.0847H43.3772C42.5451 55.7488 40.8809 59.9092 39.6328 61.9894C42.1291 61.5733 45.8734 59.4931 48.7856 58.6611C50.4498 54.9167 51.6979 54.9167 51.2818 54.0847H55.0262C53.362 54.5007 50.4498 57.413 49.2017 58.245C51.2818 57.413 53.362 56.5809 55.4422 55.7488C56.6903 54.9167 57.1063 54.0847 56.6903 54.0847H79.9883C81.2364 54.0847 81.2364 51.5885 79.9883 51.5885H13.8386C12.5905 51.5885 12.5905 54.0847 13.8386 54.0847H30.064ZM49.2017 54.0847H45.4573C45.4573 55.3328 44.2092 58.6611 43.3772 59.9092C43.3772 60.3252 43.7932 59.9092 44.6253 59.4931C45.8734 57.829 47.5375 54.9167 49.2017 54.0847Z" fill="white"/>
<path d="M34.2243 77.7987L25.4876 73.6384L18.415 80.711H31.3121L34.2243 77.7987ZM25.9036 74.8865C26.3197 74.8865 27.1517 75.3025 27.1517 75.7185C27.1517 76.1346 26.7357 76.5506 26.3197 76.5506C25.4876 76.5506 25.0716 76.1346 25.0716 75.7185C25.0716 75.3025 25.4876 74.8865 25.9036 74.8865Z" fill="white"/>
<path d="M120 29L131.097 44.2198L142.195 29V52.1821H137.634V42.7936L131.098 51.8149L124.561 42.7936V52.1821H120.001V29H120ZM158.162 29.4236H162.75V38.5721V43.1464C162.75 45.6736 161.861 47.8337 160.068 49.6267C158.275 51.4197 156.114 52.3091 153.601 52.3091C151.074 52.3091 148.914 51.4197 147.121 49.6267C145.328 47.8337 144.439 45.6735 144.439 43.1464V38.5721V29.4236H149.027V38.5721V42.6664V43.1323C149.027 44.3889 149.479 45.4619 150.368 46.3513C151.258 47.2407 152.331 47.6926 153.587 47.6926C154.83 47.6926 155.903 47.2408 156.806 46.3513C157.71 45.4618 158.162 44.3889 158.162 43.1323V42.6664V38.5721V29.4236H158.162ZM164.995 29.4236H169.555V47.6223H178.647V52.1825H164.995V29.424L164.995 29.4236ZM182.643 29.4236H187.203H192.893V33.9697H187.203V52.1821H182.643V33.9697H176.953V29.4236H182.643V29.4236ZM194.869 52.1821V29.4236H199.43V52.1821H194.869ZM212.616 29.3101L212.602 29.3666C214.184 29.3666 215.666 29.6631 217.064 30.2702C218.461 30.8772 219.69 31.6961 220.749 32.7267L217.501 35.9739C216.132 34.6186 214.508 33.9409 212.631 33.9409C210.725 33.9409 209.101 34.6186 207.76 35.9739C206.418 37.3293 205.741 38.9529 205.741 40.8448C205.741 42.7507 206.418 44.3743 207.76 45.7156C209.101 47.0569 210.725 47.7346 212.631 47.7346C214.537 47.7346 216.16 47.0569 217.516 45.7015L220.763 48.9487C219.704 49.9935 218.476 50.8123 217.078 51.4195C215.68 52.0266 214.198 52.323 212.616 52.323C209.454 52.323 206.743 51.1936 204.499 48.9487C202.254 46.7039 201.124 43.9932 201.124 40.831C201.124 37.6689 202.254 34.9578 204.499 32.6989C206.744 30.44 209.454 29.3105 212.616 29.3105L212.616 29.3101ZM233.37 29.3101C236.533 29.3101 239.244 30.4396 241.503 32.6985C243.761 34.9574 244.891 37.6682 244.891 40.8307C244.891 43.9932 243.761 46.7039 241.503 48.9484C239.244 51.1928 236.533 52.3227 233.37 52.3227C230.208 52.3227 227.497 51.1932 225.253 48.9484C223.008 46.7035 221.878 43.9928 221.878 40.8307C221.878 37.6685 223.008 34.9574 225.253 32.6985C227.498 30.4396 230.208 29.3101 233.37 29.3101V29.3101ZM233.37 33.8988C231.464 33.8988 229.841 34.5765 228.5 35.9318C227.158 37.2872 226.481 38.9108 226.481 40.8027C226.481 42.7086 227.158 44.3323 228.5 45.6735C229.841 47.0148 231.464 47.6925 233.37 47.6925C235.262 47.6925 236.886 47.0148 238.241 45.6735C239.597 44.3323 240.274 42.7086 240.274 40.8027C240.274 38.9108 239.597 37.2872 238.241 35.9318C236.886 34.5765 235.262 33.8988 233.37 33.8988ZM257.484 29.3101C260.647 29.3101 263.358 30.4396 265.617 32.6985C267.876 34.9574 269.005 37.6682 269.005 40.8307C269.005 43.9932 267.876 46.7039 265.617 48.9484C263.358 51.1928 260.647 52.3227 257.484 52.3227C254.322 52.3227 251.611 51.1932 249.367 48.9484C247.122 46.7035 245.992 43.9928 245.992 40.8307C245.992 37.6685 247.122 34.9574 249.367 32.6985C251.612 30.4396 254.322 29.3101 257.484 29.3101V29.3101ZM257.484 33.8988C255.579 33.8988 253.955 34.5765 252.614 35.9318C251.272 37.2872 250.595 38.9108 250.595 40.8027C250.595 42.7086 251.272 44.3323 252.614 45.6735C253.955 47.0148 255.579 47.6925 257.484 47.6925C259.376 47.6925 261 47.0148 262.355 45.6735C263.711 44.3323 264.388 42.7086 264.388 40.8027C264.388 38.9108 263.711 37.2872 262.355 35.9318C261 34.5765 259.376 33.8988 257.484 33.8988ZM270.671 29.4236H275.231V38.0639L280.243 29.4236H285.509L278.789 40.9864L286.596 52.1821H281.048L275.231 43.8237V52.1821H270.671V29.4236H270.671ZM288.29 29.4236H301.943V33.9697H292.851V38.5299H299.67V43.0761H292.851V47.6222H301.943V52.1824H292.851H288.291V29.424L288.29 29.4236ZM304.061 52.1821L304.047 29.3954H311.444C313.633 29.3954 315.793 30.1578 317.36 31.725C318.927 33.2921 319.562 34.7604 319.562 36.9488V37.6547C319.562 39.3489 319.082 40.5913 318.122 41.9467C317.162 43.302 316.357 43.6973 314.861 44.262L320 52.1824H314.437L308.621 43.2876V52.1824H304.06L304.061 52.1821ZM308.607 40.351L311.868 40.3652C312.814 40.3652 313.294 40.1252 313.958 39.4616C314.621 38.798 314.861 38.0356 314.861 37.0897C314.861 36.1578 314.621 35.5367 313.958 34.859C313.294 34.1813 312.108 33.9413 311.162 33.9413H308.607V40.3511L308.607 40.351Z" fill="white"/>
</g>
<defs>
<clipPath id="clip0_1_2">
<rect width="320" height="80.711" fill="white"/>
</clipPath>
</defs>
</svg>
